<?xml version="1.0" encoding="utf-8"?>
<!-- Generator: Adobe Illustrator 15.1.0, SVG Export Plug-In . SVG Version: 6.00 Build 0)  -->
<!DOCTYPE svg PUBLIC "-//W3C//DTD SVG 1.1//EN" "http://www.w3.org/Graphics/SVG/1.1/DTD/svg11.dtd">
<svg version="1.1" id="Layer_1" xmlns="http://www.w3.org/2000/svg" xmlns:xlink="http://www.w3.org/1999/xlink" x="0px" y="0px"
	 width="373px" height="275.695px" viewBox="-162.5 -113.848 373 275.695" enable-background="new -162.5 -113.848 373 275.695"
	 xml:space="preserve">
<path d="M178.064,161.848h-308.13c-17.912,0-32.435-14.522-32.435-32.435V-81.413c0-17.912,14.522-32.435,32.435-32.435h308.13
	c17.912,0,32.436,14.522,32.436,32.435v210.826C210.5,147.325,195.977,161.848,178.064,161.848z M194.282-81.413
	c0-8.952-7.269-16.217-16.218-16.217h-308.13c-8.952,0-16.217,7.265-16.217,16.217v210.826c0,8.948,7.265,16.218,16.217,16.218
	h308.13c8.949,0,16.218-7.27,16.218-16.218V-81.413z M164.556,110.883l-51.36-51.359L83.85,88.869l27.033,27.035
	c3.089,3.088,3.089,8.101,0,11.196c-3.096,3.089-8.108,3.089-11.196,0L-16.543,10.871l-100.013,100.012
	c-3.088,3.089-8.101,3.089-11.197,0c-3.092-3.096-3.092-8.108,0-11.196L-23.112-4.955c0.261-0.392,0.432-0.82,0.772-1.168
	c1.595-1.6,3.706-2.328,5.796-2.281c2.09-0.047,4.201,0.681,5.796,2.281c0.34,0.348,0.503,0.776,0.772,1.168l82.627,82.627
	l33.971-33.972c0.27-0.388,0.436-0.823,0.775-1.172c1.6-1.592,3.707-2.328,5.797-2.28c2.091-0.048,4.197,0.688,5.797,2.28
	c0.34,0.349,0.506,0.784,0.775,1.172l55.985,55.985c3.089,3.088,3.089,8.101,0,11.196
	C172.656,113.972,167.645,113.972,164.556,110.883z M64.543-16.543c-17.912,0-32.435-14.523-32.435-32.435
	s14.522-32.435,32.435-32.435s32.436,14.522,32.436,32.435S82.455-16.543,64.543-16.543z M64.543-65.196
	c-8.947,0-16.217,7.265-16.217,16.217s7.27,16.218,16.217,16.218c8.948,0,16.218-7.266,16.218-16.218S73.491-65.196,64.543-65.196z"
	/>
</svg>
