<?xml version="1.0" encoding="utf-8"?>
<!-- Generator: Adobe Illustrator 15.1.0, SVG Export Plug-In . SVG Version: 6.00 Build 0)  -->
<!DOCTYPE svg PUBLIC "-//W3C//DTD SVG 1.1//EN" "http://www.w3.org/Graphics/SVG/1.1/DTD/svg11.dtd">
<svg version="1.1" id="Layer_1" xmlns="http://www.w3.org/2000/svg" xmlns:xlink="http://www.w3.org/1999/xlink" x="0px" y="0px"
	 width="21.962px" height="86.538px" viewBox="0 0 21.962 86.538" enable-background="new 0 0 21.962 86.538" xml:space="preserve">
<g>
	<g>
		<path d="M4.717,8.579l7.229,7.229l-1.35,1.35L2.017,8.579L10.595,0l1.35,1.35L4.717,8.579z"/>
	</g>
	<g>
		<path d="M2.293,37.633v-0.058C0.516,36.572,0,34.422,0,32.759c0-3.412,2.007-5.19,4.272-5.19c2.638,0,4.186,1.434,4.387,5.362
			c0.086,1.577,0.172,3.125,0.229,4.702h1.089c1.835,0,3.326-0.774,3.326-3.641c0-2.638-1.118-3.498-2.724-3.785V28
			c3.211,0.459,4.559,2.638,4.559,6.021c0,3.842-1.749,5.849-4.816,5.849H3.211c-0.889,0-2.007,0.115-2.81,0.201v-2.437H2.293z
			 M7.196,37.633l-0.172-3.785c-0.115-2.437-0.774-3.871-2.638-3.871c-1.434,0-2.552,1.233-2.552,3.269
			c0,1.95,1.089,4.387,3.584,4.387H7.196z"/>
		<path d="M12.902,45.687v-2.667h1.835v2.667h4.1c2.294,0,3.125,1.692,3.125,3.44c0,0.631,0,1.262-0.086,1.692h-2.179
			c0.086-0.373,0.086-0.86,0.086-1.348c0-1.147-0.573-1.548-1.434-1.548h-3.613v2.896h-1.835v-2.896h-12.5v-2.236H12.902z"/>
		<path d="M14.737,52.595v2.667h4.186v2.236h-4.186v2.896h-1.835v-2.896H4.1c-1.291,0-1.864,0.373-1.864,1.376
			c0,0.516,0.029,1.061,0.086,1.491H0.315c-0.058-0.803-0.086-1.577-0.086-2.265c0-1.921,0.745-2.838,3.612-2.838h9.06v-2.667
			H14.737z"/>
		<path d="M4.444,75.989C1.72,74.756,0,72.692,0,69.395c0-4.014,3.039-6.737,7.024-6.737c4.817,0,8.114,2.638,8.114,6.852
			c0,4.071-2.58,6.853-7.454,6.853H7.053V65.065c-3.326,0-5.046,2.036-5.046,4.444c0,2.581,1.605,3.699,2.781,4.186L4.444,75.989z
			 M8.888,73.954c2.609-0.315,4.243-1.807,4.243-4.387c0-2.925-2.293-4.272-4.243-4.444V73.954z"/>
		<path d="M14.737,79.37v2.179h-3.154v0.057c1.52,0.573,3.383,1.72,3.383,4.128v0.803h-2.351v-0.717c0-2.925-2.007-4.215-5.39-4.215
			H0.401V79.37H14.737z"/>
	</g>
</g>
</svg>
