<?xml version="1.0" encoding="utf-8"?>
<!-- Generator: Adobe Illustrator 15.1.0, SVG Export Plug-In . SVG Version: 6.00 Build 0)  -->
<!DOCTYPE svg PUBLIC "-//W3C//DTD SVG 1.1//EN" "http://www.w3.org/Graphics/SVG/1.1/DTD/svg11.dtd">
<svg version="1.1" id="Layer_1" xmlns="http://www.w3.org/2000/svg" xmlns:xlink="http://www.w3.org/1999/xlink" x="0px" y="0px"
	 width="21.962px" height="111.42px" viewBox="0 0 21.962 111.42" enable-background="new 0 0 21.962 111.42" xml:space="preserve">
<g>
	<g>
		<path d="M10.143,8.579L2.915,1.35L4.265,0l8.579,8.579l-8.579,8.579l-1.35-1.35L10.143,8.579z"/>
	</g>
	<g>
		<path d="M21.962,28.343v2.236h-9.719v0.057c0.917,0.602,2.724,1.893,2.724,5.075c0,2.981-2.122,6.623-7.397,6.623
			C3.097,42.335,0,39.382,0,35.425c0-2.953,1.777-4.128,2.896-4.788V30.58H0.401v-2.236H21.962z M12.959,35.282
			c0-2.38-1.749-4.702-5.505-4.702c-3.011,0-5.448,1.778-5.448,4.788s2.523,4.559,5.505,4.559
			C11.296,39.926,12.959,37.748,12.959,35.282z"/>
		<path d="M4.444,58.416C1.72,57.183,0,55.119,0,51.821c0-4.014,3.039-6.738,7.024-6.738c4.817,0,8.114,2.638,8.114,6.853
			c0,4.071-2.58,6.853-7.454,6.853H7.053V47.492c-3.326,0-5.046,2.036-5.046,4.444c0,2.581,1.605,3.699,2.781,4.186L4.444,58.416z
			 M8.888,56.38c2.609-0.315,4.243-1.807,4.243-4.387c0-2.925-2.293-4.272-4.243-4.444V56.38z"/>
		<path d="M12.902,63.201v-2.667h1.835v2.667h4.1c2.294,0,3.125,1.692,3.125,3.44c0,0.631,0,1.262-0.086,1.692h-2.179
			c0.086-0.373,0.086-0.86,0.086-1.348c0-1.147-0.573-1.548-1.434-1.548h-3.613v2.896h-1.835v-2.896h-12.5v-2.236H12.902z"/>
		<path d="M0,77.994c0-5.189,3.756-7.397,7.569-7.397c3.813,0,7.569,2.58,7.569,7.397c0,5.189-3.756,7.397-7.569,7.397
			C3.756,85.391,0,82.811,0,77.994z M2.007,77.994c0,3.097,2.322,4.989,5.562,4.989c3.24,0,5.562-1.892,5.562-4.989
			s-2.322-4.989-5.562-4.989C4.329,73.005,2.007,74.897,2.007,77.994z"/>
		<path d="M14.737,88.915v2.179h-3.154v0.057c1.52,0.573,3.383,1.72,3.383,4.128v0.803h-2.351v-0.717
			c0-2.925-2.007-4.215-5.39-4.215H0.401v-2.236H14.737z"/>
		<path d="M4.444,111.047C1.72,109.814,0,107.75,0,104.453c0-4.014,3.039-6.737,7.024-6.737c4.817,0,8.114,2.638,8.114,6.852
			c0,4.071-2.58,6.853-7.454,6.853H7.053v-11.296c-3.326,0-5.046,2.036-5.046,4.444c0,2.581,1.605,3.699,2.781,4.186L4.444,111.047z
			 M8.888,109.012c2.609-0.315,4.243-1.807,4.243-4.387c0-2.925-2.293-4.272-4.243-4.444V109.012z"/>
	</g>
</g>
</svg>
