<?xml version="1.0" encoding="utf-8"?>
<!-- Generator: Adobe Illustrator 15.1.0, SVG Export Plug-In . SVG Version: 6.00 Build 0)  -->
<!DOCTYPE svg PUBLIC "-//W3C//DTD SVG 1.1//EN" "http://www.w3.org/Graphics/SVG/1.1/DTD/svg11.dtd">
<svg version="1.1" id="Full_Logo_xA0_Image_1_" xmlns="http://www.w3.org/2000/svg" xmlns:xlink="http://www.w3.org/1999/xlink"
	 x="0px" y="0px" width="422.16px" height="102.24px" viewBox="0 0 422.16 102.24" enable-background="new 0 0 422.16 102.24"
	 xml:space="preserve">
<path fill-rule="evenodd" clip-rule="evenodd" fill="#FFFFFF" d="M150.96,0c2.08,0,4.16,0,6.24,0
	c4.638,0.569,6.002,6.272,4.32,11.04c-2.255-0.145-5.099,0.299-6.96-0.24c0.545-1.597,0.951-4.862-0.48-5.76
	c-5.034-0.197-5.891,4.405-7.2,10.08c-0.812,3.521-3.652,12.964,0.48,13.68c4.102,0.711,3.994-4.263,5.52-6.72
	c2.082,0.158,4.798-0.318,6.48,0.24c-0.716,4.52-2.353,8.357-6.24,10.32c-3.922,1.981-11.117,1.863-13.68-1.2
	c-2.594-3.1-1.248-8.789-0.24-13.68C140.975,9.142,142.689,1.32,150.96,0z"/>
<path fill-rule="evenodd" clip-rule="evenodd" fill="#FFFFFF" d="M24.48,0.48c10.64,0,21.28,0,31.92,0
	c-3.822,15.938-7.563,31.957-11.52,47.76c0.78-14.541-27.739-13.252-30.96-3.12C16.68,30.439,20.733,14.973,24.48,0.48z"/>
<path fill-rule="evenodd" clip-rule="evenodd" fill="#FFFFFF" d="M63.12,0.48c10.64,0,21.28,0,31.92,0
	c-3.836,16.004-7.707,31.973-11.52,48c0.997-14.798-27.692-13.54-30.96-3.36C55.285,30.404,59.339,14.939,63.12,0.48z"/>
<path opacity="0.5" fill-rule="evenodd" clip-rule="evenodd" fill="#FFFFFF" d="M108.96,102.24c-10.56,0-21.12,0-31.68,0
	c7.725-33.396,15.984-68.336,24.48-101.76c10.56,0,21.12,0,31.68,0C125.224,34.344,117.203,68.402,108.96,102.24z M101.76,38.16
	c-1.112,3.767-1.935,7.825-2.88,11.76c3.687,0.553,8.395,0.085,12.48,0.24c0.614-4.266,1.929-7.831,2.64-12
	C109.92,38.16,105.84,38.16,101.76,38.16z M97.68,56.16c-3.548,12.372-6.383,25.456-9.36,38.399c4.08,0,8.16,0,12.24,0
	c2.977-12.863,6.258-25.422,9.12-38.399C105.68,56.16,101.68,56.16,97.68,56.16z"/>
<path fill-rule="evenodd" clip-rule="evenodd" fill="#FFFFFF" d="M174.72,0.48c-2.417,10.863-4.783,21.777-6.96,32.88
	c-2.4,0-4.8,0-7.2,0c2.443-10.917,4.431-22.289,7.2-32.88C170.08,0.48,172.4,0.48,174.72,0.48z"/>
<path fill-rule="evenodd" clip-rule="evenodd" fill="#FFFFFF" d="M206.88,0.48c0.313,4.727,1.367,8.713,1.68,13.44
	c2.879-4.32,5.247-9.153,8.16-13.44c2.24,0,4.48,0,6.721,0c0.37,0.993-0.746,1.687-1.2,2.4c-2.812,4.416-5.592,9.232-8.641,13.92
	c-1.131,1.739-2.963,3.531-3.6,5.28c-1.311,3.605-0.974,7.295-2.16,11.28c-2.4,0-4.8,0-7.2,0c0.235-4.009,2.275-7.322,2.4-11.28
	c0.103-3.25-1.254-7.042-1.92-10.56c-0.669-3.536-1.431-7.09-1.92-10.56C198.56,2.4,198.424,4.344,198,6c-2.4,0-4.8,0-7.2,0
	c-2.763,8.437-4.037,18.363-6.24,27.36c-2.32,0-4.64,0-6.96,0c1.703-9.336,3.752-18.328,5.76-27.36c-2.56,0-5.12,0-7.68,0
	c0.544-1.776,0.547-4.093,1.44-5.52C187.04,0.48,196.96,0.48,206.88,0.48z"/>
<path fill-rule="evenodd" clip-rule="evenodd" fill="#FFFFFF" d="M141.12,66c1.637-1.082,1.917-3.522,2.4-5.76c2.32,0,4.64,0,6.96,0
	c-1.024,4.376-1.61,7.152-4.08,9.359c-3.822,3.416-15.126,3.701-17.04-1.92c-0.174-0.511-0.453-2.407-0.48-3.359
	c-0.179-6.35,2.973-18.222,5.76-21.84c4.921-6.387,23.006-6.736,18,6.72c-2.32,0-4.64,0-6.96,0c0.247-1.788,1.033-4.511-0.24-5.76
	c-5.752-0.742-6.661,5.225-7.92,11.28C136.514,59.559,134.589,70.237,141.12,66z"/>
<path fill-rule="evenodd" clip-rule="evenodd" fill="#FFFFFF" d="M166.32,38.4c6.059-0.852,11.473,0.487,12,6.48
	c0.478,5.424-2.502,17.943-5.04,21.84c-3.804,5.842-17.071,8.167-19.92,1.44c-0.666-1.573-0.658-4.129-0.48-6.48
	c0.582-7.671,3.291-17.879,7.44-21.12C161.896,39.329,163.815,38.752,166.32,38.4z M169.44,55.68
	c0.854-3.976,3.998-14.893-3.12-12.24c-2.871,1.07-3.874,6.54-4.8,10.56c-1.017,4.417-2.513,10.019-0.24,12.72
	C167.806,67.851,168.167,61.61,169.44,55.68z"/>
<path fill-rule="evenodd" clip-rule="evenodd" fill="#FFFFFF" d="M231.12,48.24c-2.32,0-4.64,0-6.96,0
	c0.341-1.75,0.575-3.208-0.24-4.56c-3.146-1.474-6.029,1.03-6,3.6c0.058,5.033,10.146,5.843,10.8,12.24
	c0.865,8.445-6.558,13.923-16.56,12.48c-4.749-0.685-6.727-4.956-4.8-10.8c2.4,0,4.8,0,7.2,0c-0.417,1.078-0.786,3.297-0.239,4.56
	c2.415,2.67,7.243,0.226,6.96-3.359c-0.359-4.549-10.37-5.949-10.8-12.48c-0.44-6.681,4.533-11.138,10.56-11.76
	C228.855,37.353,233.441,40.079,231.12,48.24z"/>
<path fill-rule="evenodd" clip-rule="evenodd" fill="#FFFFFF" d="M326.88,49.2c-2.32,0-4.64,0-6.96,0
	c0.212-1.896,1.12-4.699-0.479-5.76c-4.396-1.056-5.69,3.541-6.96,8.88c-0.957,4.02-4.137,13.809,0,14.64
	c3.976,0.799,4.515-3.682,5.279-6.72c2.32,0,4.641,0,6.96,0c-0.925,3.93-1.641,7.448-4.8,9.84c-3.31,2.505-12.166,3.065-15.12-0.24
	c-3.448-3.858-1.094-10.488,0.24-16.56c1.283-5.838,2.723-10.952,6.72-13.44C318.304,35.766,331.313,38.178,326.88,49.2z"/>
<path fill-rule="evenodd" clip-rule="evenodd" fill="#FFFFFF" d="M361.68,38.4c3.86-0.543,8.572-0.215,10.561,2.16
	c2.779,3.322,0.823,11.755,0,15.6c-1.214,5.664-2.553,10.318-5.521,12.96c-2.715,2.416-12.104,5.206-16.56,0.96
	c-4.408-4.2-0.006-20.892,2.399-25.44C354.244,41.457,357.183,39.033,361.68,38.4z M356.88,54.24
	c-0.913,4.394-2.24,9.566-0.479,12.239c5.583,2.051,6.877-3.729,7.92-7.92c1.093-4.396,2.804-10.148,1.68-14.399
	C359.621,40.798,358.032,48.7,356.88,54.24z"/>
<path fill-rule="evenodd" clip-rule="evenodd" fill="#FFFFFF" d="M422.16,41.76c0,1.84,0,3.68,0,5.52
	c-0.807,1.914-4.89,0.551-7.2,0.96c0.28-1.754,0.492-3.937-0.72-4.8c-3.461-0.858-5.813,1.498-5.521,4.32
	c0.431,4.15,9.04,5.436,10.32,10.561c0.844,3.377-0.641,8.975-3.6,11.279c-6.56,5.109-22.847,3.096-17.28-8.399
	c2.319,0,4.64,0,6.96,0c-0.307,1.654-0.79,3.576,0,5.04c2.661,1.727,7.055,0.027,6.72-3.84c-0.399-4.61-8.932-5.817-10.32-10.801
	c-2.591-9.3,8.032-16.393,17.28-12.959C420.013,39.09,421.257,40.237,422.16,41.76z"/>
<path fill-rule="evenodd" clip-rule="evenodd" fill="#FFFFFF" d="M193.68,38.64c1.187,7.213,2.588,14.211,3.6,21.6
	c2.324-6.557,3.117-14.644,5.04-21.6c2.16,0,4.32,0,6.48,0c-2.031,11.168-4.79,21.61-6.72,32.879c-3.12,0-6.24,0-9.36,0
	c-1.241-7.559-2.593-15.007-3.6-22.799c-2.229,7.05-3.537,15.024-5.04,22.799c-2.24,0-4.48,0-6.72,0
	c2.307-11.053,4.296-22.424,7.2-32.879C187.6,38.64,190.64,38.64,193.68,38.64z"/>
<path fill-rule="evenodd" clip-rule="evenodd" fill="#FFFFFF" d="M256.56,38.64c-0.438,1.88-0.905,3.734-1.199,5.76
	c-2.48,0-4.96,0-7.44,0c-2.362,8.678-3.926,18.155-6,27.12c-2.32,0-4.64,0-6.96,0c1.6-9.2,3.808-17.792,5.521-26.879
	c-2.002-0.559-5.039-0.082-7.44-0.24c0.46-1.94,0.561-4.239,1.44-5.76C241.84,38.64,249.2,38.64,256.56,38.64z"/>
<path fill-rule="evenodd" clip-rule="evenodd" fill="#FFFFFF" d="M270.48,55.2c7.271,1.347,1.938,10.602,2.64,16.08
	c-1.837,0.509-5.733,0.15-7.2,0.239c-0.669-5.455,5.297-14.437-3.84-13.439c-1.48,4.039-2.063,8.977-3.12,13.439c-2.4,0-4.8,0-7.2,0
	c2.402-10.878,4.79-21.77,6.96-32.879c6.355,0.618,17.649-2.114,18.96,3.84C278.875,47.904,275.575,54.535,270.48,55.2z
	 M264.72,43.92c-0.358,3.161-1.346,5.694-1.68,8.88c6.017,1.157,8.247-4.289,6.72-8.4C268.613,43.707,266.525,43.954,264.72,43.92z"
	/>
<path fill-rule="evenodd" clip-rule="evenodd" fill="#FFFFFF" d="M289.68,38.64c-0.984,4.632-1.765,8.654-2.88,13.919
	c-0.79,3.729-5.466,17.72,3.12,13.92c3.683-1.629,3.752-8.194,4.8-13.199c1.208-5.77,2.456-10.322,3.36-14.64c2.32,0,4.64,0,6.96,0
	c-3.003,9.112-2.723,26.601-10.08,31.44c-4.923,3.237-16.372,2.93-17.52-3.36c-0.202-1.104-0.098-2.447,0-3.6
	c0.646-7.634,4.18-16.587,5.04-23.76c-0.021-0.34-0.04-0.68,0.239-0.72C285.04,38.64,287.36,38.64,289.68,38.64z"/>
<path fill-rule="evenodd" clip-rule="evenodd" fill="#FFFFFF" d="M352.56,38.64c-0.438,1.88-0.905,3.734-1.199,5.76
	c-2.48,0-4.96,0-7.44,0c-2.335,8.705-3.918,18.163-6,27.12c-2.161,0.159-4.958-0.317-6.72,0.24c0.904-8.936,3.767-17.993,5.28-27.12
	c-2.002-0.559-5.039-0.082-7.44-0.24c0.46-1.94,0.561-4.239,1.44-5.76C337.84,38.64,345.2,38.64,352.56,38.64z"/>
<path fill-rule="evenodd" clip-rule="evenodd" fill="#FFFFFF" d="M390.96,55.2c7.416,1.271,2.488,10.204,2.64,16.319
	c-2.319,0-4.64,0-6.96,0c-0.714-5.501,5.307-14.427-3.84-13.439c-1.535,3.984-2.066,8.974-3.12,13.439c-2.399,0-4.8,0-7.199,0
	c2.387-10.893,4.76-21.799,6.96-32.879c5.761,0.553,16.354-1.686,18.479,2.64C400.454,46.436,396.431,54.976,390.96,55.2z
	 M385.44,43.92c-0.37,3.15-1.381,5.66-1.681,8.88c5.589,0.629,7.416-2.503,7.2-7.68C390.146,43.693,387.737,43.862,385.44,43.92z"/>
<path fill-rule="evenodd" clip-rule="evenodd" fill="#FFFFFF" d="M32.88,55.44c3.44,0,6.88,0,10.32,0
	c-1.682,7.598-3.702,14.858-5.28,22.56c-3.36,0-6.72,0-10.08,0c-1.341,2.822-1.176,6.817-3.6,8.64
	c-3.583,2.693-9.143,1.109-8.64-4.56c0.465-5.252,2.356-10.513,4.08-18c0.747-3.243,1.46-5.934,2.16-8.88
	c0.733-3.087,1.33-6.938,2.64-8.16c1.901-1.773,7.328-1.439,8.64,0.48C34.607,49.695,33.46,52.89,32.88,55.44z"/>
<path fill-rule="evenodd" clip-rule="evenodd" fill="#FFFFFF" d="M71.52,55.2c2.961,0.559,6.959,0.08,10.32,0.24
	c-1.709,7.57-3.726,14.834-5.28,22.56c-3.36,0-6.72,0-10.08,0c-1.481,3.137-1.133,6.711-3.6,8.64c-3.904,3.054-9.024,0.78-8.64-4.56
	c0.381-5.301,2.33-10.661,4.08-18c0.748-3.137,1.418-5.719,2.16-8.88c0.72-3.067,1.342-7.014,2.64-8.16
	c1.706-1.507,6.869-1.645,8.4,0.24C73.148,49.284,72.196,52.563,71.52,55.2z"/>
<path fill-rule="evenodd" clip-rule="evenodd" fill="#FFFFFF" d="M141.12,66C140.83,66.024,140.973,65.651,141.12,66L141.12,66z"/>
<path opacity="0.5" fill-rule="evenodd" clip-rule="evenodd" fill="#FFFFFF" d="M164.16,102.24c-1.92,0-3.84,0-5.76,0
	c-1.745-0.612-2.723-1.731-3.12-3.12c-0.939-3.289,0.531-12.17,2.88-16.08c3.229-5.374,16.678-6.015,12.96,3.84
	c-1.52,0-3.04,0-4.56,0c-0.382-0.93,0.923-3.366-0.48-4.08c-3.057-0.688-3.871,2.781-4.8,6.72c-0.701,2.973-2.679,9.011,0.48,9.36
	c2.502,0.277,2.5-2.671,3.36-4.56c1.522,0.157,3.676-0.316,4.8,0.239C169.023,98.143,167.545,101.146,164.16,102.24z"/>
<path opacity="0.5" fill-rule="evenodd" clip-rule="evenodd" fill="#FFFFFF" d="M182.16,102.24c-1.92,0-3.84,0-5.76,0
	c-4.794-1.226-3.409-7.41-2.4-12c0.562-2.555,1.049-5.351,2.16-7.2c1.871-3.114,7.522-5.518,12-3.36
	c3.454,1.665,2.373,7.239,1.44,11.761C188.471,96.908,186.79,100.95,182.16,102.24z M178.8,98.64
	c5.821,1.408,6.339-10.295,6.48-15.12C179.277,79.797,177.523,94.268,178.8,98.64z"/>
<path opacity="0.5" fill-rule="evenodd" clip-rule="evenodd" fill="#FFFFFF" d="M237.12,102.24c-2,0-4,0-6,0
	c-6.387-1.856-1.871-17.304,0.72-20.4c2.834-3.387,11.763-4.063,13.2,0.48c1.13,3.571-0.607,12.701-3.12,16.56
	C240.824,100.563,238.773,101.584,237.12,102.24z M237.12,82.8c-2.899,1.061-5.49,13.722-3.12,16.08c6.121-0.938,5.679-9.655,6-15.6
	C239.108,82.745,238.083,82.448,237.12,82.8z"/>
<path opacity="0.5" fill-rule="evenodd" clip-rule="evenodd" fill="#FFFFFF" d="M132.48,79.44c-1.25,7.789-3.234,14.845-4.56,22.56
	c-1.68,0-3.36,0-5.04,0c1.589-7.531,3.174-15.065,4.8-22.56C129.28,79.44,130.88,79.44,132.48,79.44z"/>
<path opacity="0.5" fill-rule="evenodd" clip-rule="evenodd" fill="#FFFFFF" d="M143.76,79.44c0.617,5.143,1.654,9.866,2.4,14.88
	c1.304-4.776,2.072-10.088,3.36-14.88c1.52,0,3.04,0,4.56,0c-1.598,7.521-3.199,15.041-4.8,22.56c-2.16,0-4.32,0-6.48,0
	c-0.687-5.393-1.752-10.408-2.4-15.84c-1.23,5.169-2.385,10.415-3.36,15.84c-1.6,0-3.2,0-4.8,0c1.662-7.458,3.263-14.977,4.8-22.56
	C139.28,79.44,141.52,79.44,143.76,79.44z"/>
<path opacity="0.5" fill-rule="evenodd" clip-rule="evenodd" fill="#FFFFFF" d="M204.24,90.72c4.376,1.453,1.159,7.062,1.44,11.28
	c-1.628-0.132-3.802,0.282-5.04-0.24c-0.266-3.327,3.46-9.538-2.4-8.88c-1.172,2.588-1.507,6.014-2.16,9.12c-1.68,0-3.36,0-5.04,0
	c1.598-7.521,3.201-15.039,4.8-22.56c3.96,0.376,10.871-1.039,12.48,1.439C210.367,84.032,208.231,89.836,204.24,90.72z
	 M198.72,89.04c3.978,0.737,5.438-2.187,4.8-5.28c-0.708-0.731-2.086-0.794-3.6-0.72C199.647,85.167,199.186,87.106,198.72,89.04z"
	/>
<path opacity="0.5" fill-rule="evenodd" clip-rule="evenodd" fill="#FFFFFF" d="M216.24,92.88c-0.984,2.776-1.316,6.204-2.16,9.12
	c-1.6,0-3.2,0-4.8,0c1.305-7.735,3.285-14.796,4.56-22.56c4.532,0.663,10.383-1.34,12.72,1.199c2.232,2.426,0.475,8.514-1.68,10.561
	C222.816,93.161,219.762,92.9,216.24,92.88z M218.16,83.04c-0.333,2.146-1.01,3.95-1.2,6.24c4.023,0.503,5.537-1.503,5.28-5.28
	C221.497,83.062,219.954,82.926,218.16,83.04z"/>
<path opacity="0.5" fill-rule="evenodd" clip-rule="evenodd" fill="#FFFFFF" d="M259.2,90.72c0.609,0.751,1.732,0.988,2.16,1.92
	c0.24,3.681-1.014,5.867-0.96,9.36c-1.601,0-3.2,0-4.801,0c-0.643-3.912,3.602-9.745-2.64-9.12c-1.053,2.707-1.388,6.133-2.16,9.12
	c-1.68,0-3.359,0-5.04,0c1.727-7.394,3.298-14.942,4.8-22.56c4.7,0.456,12.304-1.672,13.2,3.119
	C264.157,84.686,262.638,90.436,259.2,90.72z M254.88,83.04c-0.426,1.975-0.99,3.811-1.2,6c3.935,0.693,5.319-2.306,4.561-5.521
	C257.474,83.007,256.209,82.991,254.88,83.04z"/>
<path opacity="0.5" fill-rule="evenodd" clip-rule="evenodd" fill="#FFFFFF" d="M279.6,79.44c0.586,7.414,0.803,15.197,1.44,22.56
	c-1.76,0-3.521,0-5.28,0c-0.027-1.652,0.129-3.489-0.24-4.8c-2,0-4,0-6,0c-0.943,1.456-1.508,3.291-2.399,4.8c-1.601,0-3.2,0-4.8,0
	c3.536-7.664,7.247-15.152,11.04-22.56C275.44,79.44,277.52,79.44,279.6,79.44z M271.2,93.36c1.359,0,2.72,0,4.08,0
	c-0.309-2.651,0.624-6.545-0.48-8.4C273.691,87.852,272.452,90.611,271.2,93.36z"/>
<path opacity="0.5" fill-rule="evenodd" clip-rule="evenodd" fill="#FFFFFF" d="M300.24,79.44c-0.344,1.336-0.543,2.816-0.96,4.079
	c-1.601,0-3.2,0-4.8,0c-2.004,5.597-2.708,12.493-4.32,18.48c-1.601,0-3.2,0-4.8,0c1.074-6.366,2.588-12.292,3.84-18.48
	c-1.681,0-3.36,0-5.04,0c0.007-1.593,0.38-2.819,0.72-4.079C290,79.44,295.12,79.44,300.24,79.44z"/>
<path opacity="0.5" fill-rule="evenodd" clip-rule="evenodd" fill="#FFFFFF" d="M315.36,79.44c-0.162,1.277-0.592,2.288-0.721,3.6
	c-2.479,0-4.96,0-7.439,0c-0.604,1.477-0.762,3.398-1.2,5.04c1.762,0.558,4.559,0.081,6.72,0.24c0.009,1.528-0.343,2.697-0.72,3.84
	c-2.24,0-4.48,0-6.72,0c-0.756,1.725-0.824,4.136-1.44,6c2.082,0.559,5.199,0.081,7.68,0.24c-0.083,1.355-0.52,2.36-0.72,3.6
	c-4.24,0-8.479,0-12.72,0c1.599-7.521,3.202-15.038,4.8-22.56C307.04,79.44,311.2,79.44,315.36,79.44z"/>
<path opacity="0.5" fill-rule="evenodd" clip-rule="evenodd" fill="#FFFFFF" d="M319.44,79.44c8.093-0.059,14.133-1.462,13.439,7.68
	c-0.331,4.363-1.621,10.39-4.56,12.96c-3.273,2.863-8.592,1.687-13.92,1.92C316.224,94.624,317.441,86.642,319.44,79.44z
	 M323.76,98.16c2.764-1.124,8.051-17.343-0.24-15.12c-1.246,4.993-2.188,10.291-3.359,15.36
	C321.042,98.323,322.685,98.598,323.76,98.16z"/>
<path fill-rule="evenodd" clip-rule="evenodd" fill="#FFFFFF" d="M31.92,102.24c-10.64,0-21.28,0-31.92,0c0-0.4,0-0.8,0-1.2
	c1.712-5.248,2.476-11.444,4.32-16.561c-0.968,14.474,24.959,13.009,30.48,6C33.869,94.429,33.007,98.447,31.92,102.24z"/>
<path fill-rule="evenodd" clip-rule="evenodd" fill="#FFFFFF" d="M70.56,102.24c-10.72,0-21.44,0-32.16,0
	c1.692-5.748,2.614-12.266,4.56-17.761c-0.991,14.501,24.97,12.991,30.48,6C72.441,94.361,71.651,98.451,70.56,102.24z"/>
</svg>
