<?xml version="1.0" encoding="utf-8"?>
<!-- Generator: Adobe Illustrator 15.1.0, SVG Export Plug-In . SVG Version: 6.00 Build 0)  -->
<!DOCTYPE svg PUBLIC "-//W3C//DTD SVG 1.1//EN" "http://www.w3.org/Graphics/SVG/1.1/DTD/svg11.dtd">
<svg version="1.1" id="Layer_1" xmlns="http://www.w3.org/2000/svg" xmlns:xlink="http://www.w3.org/1999/xlink" x="0px" y="0px"
	 width="417px" height="318.126px" viewBox="0 0 417 318.126" enable-background="new 0 0 417 318.126" xml:space="preserve">
<path fill-rule="evenodd" clip-rule="evenodd" fill="#033E52" d="M75.75,0.126c33.5,0,67,0,100.5,0
	c-12.418,49.582-22.978,101.022-36.75,149.25c3.315-47.829-87.871-38.707-96.75-10.5C53.269,92.145,64.954,46.58,75.75,0.126z"/>
<path fill-rule="evenodd" clip-rule="evenodd" fill="#033E52" d="M196.5,0.126c33.5,0,67,0,100.5,0
	c-12.562,49.438-23.085,100.915-36.75,149.25c3.293-47.691-87.938-38.839-96.75-10.5C173.893,92.019,185.553,46.429,196.5,0.126z"/>
<path fill-rule="evenodd" clip-rule="evenodd" fill="#D2D9D9" d="M317.25,0.126c33,0.5,68-1,99.75,0.75
	c-26.263,104.739-50.771,211.226-76.5,316.5c-31.5,0.5-65-1-95.25,0.75c-0.25,0-0.5,0-0.75,0c-0.143-0.852-0.752-0.416-0.75,0
	c-0.25,0-0.5,0-0.75,0c-1.554-7.485,4.961-28.094,7.5-39C272.255,185.674,296.344,90.51,317.25,0.126z M387,114.876
	C387.491,115.367,386.686,114.562,387,114.876L387,114.876z M291,116.376C291.869,119.339,291.869,113.413,291,116.376L291,116.376z
	 M317.25,117.876c-2.165,13.085-6.358,24.142-8.25,37.5c12.75,0,25.5,0,38.25,0c3.257-11.766,7.326-26.644,9-37.5
	C343.25,117.876,330.25,117.876,317.25,117.876z M357,120.876C357.491,121.367,356.686,120.562,357,120.876L357,120.876z
	 M307.5,154.626C307.991,155.117,307.186,154.312,307.5,154.626L307.5,154.626z M304.5,174.126
	c-10.413,39.337-19.255,80.244-29.25,120c13,0,26,0,39,0c9.485-40.014,19.988-79.012,28.5-120
	C331.684,172.854,315.577,172.92,304.5,174.126z M266.25,219.126C266.741,219.617,265.936,218.812,266.25,219.126L266.25,219.126z"
	/>
<path fill-rule="evenodd" clip-rule="evenodd" fill="#D2D9D9" d="M387,114.876C386.686,114.562,387.491,115.367,387,114.876
	L387,114.876z"/>
<path fill-rule="evenodd" clip-rule="evenodd" fill="#D2D9D9" d="M291,116.376C291.869,113.413,291.869,119.339,291,116.376
	L291,116.376z"/>
<path fill-rule="evenodd" clip-rule="evenodd" fill="#D2D9D9" d="M357,120.876C356.686,120.562,357.491,121.367,357,120.876
	L357,120.876z"/>
<path fill-rule="evenodd" clip-rule="evenodd" fill="#033E52" d="M102.75,171.876c10.75,0,21.5,0,32.25,0
	c-5.373,23.627-11.508,46.492-16.5,70.5c-10.5,0-21,0-31.5,0c-4.041,7.299-2.597,16.693-8.25,24c-6.114,7.904-25.515,9.521-30-2.25
	c2.988-30.4,12.016-60.575,18.75-89.25c2.201-9.371,3.196-20.942,6.75-26.25c4.678-6.986,20.993-9.758,27.75-3
	C107.954,151.579,105.157,162.981,102.75,171.876z"/>
<path fill-rule="evenodd" clip-rule="evenodd" fill="#033E52" d="M223.5,171.876c10.75,0,21.5,0,32.25,0
	c-5.399,23.601-11.697,46.303-16.5,70.5c-10.5,0-21,0-31.5,0c-2.075,14.615-12.836,39.807-33,28.5
	c-2.316-1.299-2.876-4.201-5.25-6.75c2.74-28.945,12.225-62.432,19.5-93.75c2.181-9.389,4.542-21.99,9-25.5
	c5.432-4.276,20.097-4.004,24.75,0.75C228.705,151.71,225.548,162.774,223.5,171.876z"/>
<path fill-rule="evenodd" clip-rule="evenodd" fill="#D2D9D9" d="M307.5,154.626C307.186,154.312,307.991,155.117,307.5,154.626
	L307.5,154.626z"/>
<path fill-rule="evenodd" clip-rule="evenodd" fill="#FFFFFF" d="M266.25,219.126C265.936,218.812,266.741,219.617,266.25,219.126
	L266.25,219.126z"/>
<path fill-rule="evenodd" clip-rule="evenodd" fill="#033E52" d="M99.75,318.126c-33.25,0-66.5,0-99.75,0c0-1.25,0-2.5,0-3.75
	c5.307-16.693,8.026-35.975,13.5-52.5c-3.717,46.143,77.794,41.355,95.25,19.5C105.793,293.669,103.124,306.25,99.75,318.126z"/>
<path fill-rule="evenodd" clip-rule="evenodd" fill="#033E52" d="M220.5,318.126c-33.5,0-67,0-100.5,0
	c5.185-18.314,8.496-38.504,14.25-56.25c-3.786,46.221,77.844,41.303,95.25,19.5C226.344,293.47,223.857,306.233,220.5,318.126z"/>
<path fill-rule="evenodd" clip-rule="evenodd" fill="#FFFFFF" d="M243.75,318.126c-0.002-0.416,0.607-0.852,0.75,0
	C244.25,318.126,244,318.126,243.75,318.126z"/>
</svg>
