<?xml version="1.0" encoding="utf-8"?>
<!-- Generator: Adobe Illustrator 16.0.0, SVG Export Plug-In . SVG Version: 6.00 Build 0)  -->
<!DOCTYPE svg PUBLIC "-//W3C//DTD SVG 1.1//EN" "http://www.w3.org/Graphics/SVG/1.1/DTD/svg11.dtd">
<svg version="1.1" id="Layer_1" xmlns="http://www.w3.org/2000/svg" xmlns:xlink="http://www.w3.org/1999/xlink" x="0px" y="0px"
	 width="30px" height="30px" viewBox="0 0 30 30" enable-background="new 0 0 30 30" xml:space="preserve">
<path fill="#FFFFFF" d="M16.621,14.972L29.438,2.155c0.451-0.45,0.451-1.172,0-1.622c-0.449-0.45-1.171-0.45-1.621,0L15,13.35
	L2.183,0.534c-0.45-0.45-1.171-0.45-1.622,0c-0.45,0.45-0.45,1.171,0,1.622l12.817,12.816L0.562,27.788
	c-0.45,0.45-0.45,1.172,0,1.621c0.226,0.225,0.52,0.335,0.809,0.335c0.288,0,0.588-0.11,0.808-0.335L15,16.594l12.816,12.815
	c0.226,0.225,0.52,0.335,0.808,0.335c0.289,0,0.589-0.11,0.809-0.335c0.449-0.449,0.449-1.171,0-1.621L16.621,14.972z"/>
</svg>
